HIERARCHY
ROOT Hips
{
	OFFSET 0.000000 0.000000 0.000000
	CHANNELS 6 Xposition Yposition Zposition Zrotation Yrotation Xrotation 
	JOINT LHipJoint
	{
		OFFSET 0.000000 0.000000 0.000000
		CHANNELS 3 Zrotation Yrotation Xrotation
		JOINT LeftUpLeg
		{
			OFFSET 1.363060 -1.794630 0.839290
			CHANNELS 3 Zrotation Yrotation Xrotation
			JOINT LeftLeg
			{
				OFFSET 2.448110 -6.726130 0.000000
				CHANNELS 3 Zrotation Yrotation Xrotation
				JOINT LeftFoot
				{
					OFFSET 2.562200 -7.039590 0.000000
					CHANNELS 3 Zrotation Yrotation Xrotation
					JOINT LeftToeBase
					{
						OFFSET 0.157640 -0.433110 2.322550
						CHANNELS 3 Zrotation Yrotation Xrotation
						End Site
						{
							OFFSET 0.000000 0.000000 0.000000
						}
					}
				}
			}
		}
	}
	JOINT RHipJoint
	{
		OFFSET 0.000000 0.000000 0.000000
		CHANNELS 3 Zrotation Yrotation Xrotation
		JOINT RightUpLeg
		{
			OFFSET -1.305520 -1.794630 0.839290
			CHANNELS 3 Zrotation Yrotation Xrotation
			JOINT RightLeg
			{
				OFFSET -2.542530 -6.985550 0.000000
				CHANNELS 3 Zrotation Yrotation Xrotation
				JOINT RightFoot
				{
					OFFSET -2.568260 -7.056230 0.000000
					CHANNELS 3 Zrotation Yrotation Xrotation
					JOINT RightToeBase
					{
						OFFSET -0.164730 -0.452590 2.363150
						CHANNELS 3 Zrotation Yrotation Xrotation
						End Site
						{
							OFFSET 0.000000 0.000000 0.000000
						}
					}
				}
			}
		}
	}
	JOINT LowerBack
	{
		OFFSET 0.000000 0.000000 0.000000
		CHANNELS 3 Zrotation Yrotation Xrotation
		JOINT Spine
		{
			OFFSET 0.028270 2.035590 -0.193380
			CHANNELS 3 Zrotation Yrotation Xrotation
			JOINT Spine1
			{
				OFFSET 0.056720 2.048850 -0.042750
				CHANNELS 3 Zrotation Yrotation Xrotation
				JOINT Neck
				{
					OFFSET 0.000000 0.000000 0.000000
					CHANNELS 3 Zrotation Yrotation Xrotation
					JOINT Neck1
					{
						OFFSET -0.054170 1.746240 0.172020
						CHANNELS 3 Zrotation Yrotation Xrotation
						JOINT Head
						{
							OFFSET 0.104070 1.761360 -0.123970
							CHANNELS 3 Zrotation Yrotation Xrotation
							End Site
							{
								OFFSET 0.000000 0.000000 0.000000
							}
						}
					}
				}
				JOINT LeftShoulder
				{
					OFFSET 0.000000 0.000000 0.000000
					CHANNELS 3 Zrotation Yrotation Xrotation
					JOINT LeftArm
					{
						OFFSET 3.362410 1.200890 -0.311210
						CHANNELS 3 Zrotation Yrotation Xrotation
						JOINT LeftForeArm
						{
							OFFSET 4.983000 -0.000000 -0.000000
							CHANNELS 3 Zrotation Yrotation Xrotation
							JOINT LeftHand
							{
								OFFSET 3.483560 -0.000000 -0.000000
								CHANNELS 3 Zrotation Yrotation Xrotation
								JOINT LeftFingerBase
								{
									OFFSET 0.000000 0.000000 0.000000
									CHANNELS 3 Zrotation Yrotation Xrotation
									JOINT LeftHandIndex1
									{
										OFFSET 0.715260 -0.000000 -0.000000
										CHANNELS 3 Zrotation Yrotation Xrotation
										End Site
										{
											OFFSET 0.000000 0.000000 0.000000
										}
									}
								}
								JOINT LThumb
								{
									OFFSET 0.000000 0.000000 0.000000
									CHANNELS 3 Zrotation Yrotation Xrotation
									End Site
									{
										OFFSET 0.000000 0.000000 0.000000
									}
								}
							}
						}
					}
				}
				JOINT RightShoulder
				{
					OFFSET 0.000000 0.000000 0.000000
					CHANNELS 3 Zrotation Yrotation Xrotation
					JOINT RightArm
					{
						OFFSET -3.136600 1.374050 -0.404650
						CHANNELS 3 Zrotation Yrotation Xrotation
						JOINT RightForeArm
						{
							OFFSET -5.241900 -0.000000 -0.000000
							CHANNELS 3 Zrotation Yrotation Xrotation
							JOINT RightHand
							{
								OFFSET -3.444170 -0.000000 -0.000000
								CHANNELS 3 Zrotation Yrotation Xrotation
								JOINT RightFingerBase
								{
									OFFSET 0.000000 0.000000 0.000000
									CHANNELS 3 Zrotation Yrotation Xrotation
									JOINT RightHandIndex1
									{
										OFFSET -0.622530 -0.000000 -0.000000
										CHANNELS 3 Zrotation Yrotation Xrotation
										End Site
										{
											OFFSET 0.000000 0.000000 0.000000
										}
									}
								}
								JOINT RThumb
								{
									OFFSET 0.000000 0.000000 0.000000
									CHANNELS 3 Zrotation Yrotation Xrotation
									End Site
									{
										OFFSET 0.000000 0.000000 0.000000
									}
								}
							}
						}
					}
				}
			}
		}
	}
}
MOTION
Frames: 4
Frame Time: 0.033333
-1.750251 16.433441 23.721115 3.065215 3.198198 8.163225 -4.229347 13.048889 -2.688098 -21.701832 -4.294219 -8.838117 -13.952837 -8.338286 -22.114563 1.830826 14.076791 30.463017 0.000000 0.000000 0.000000 11.179159 -8.545914 5.944948 2.028362 5.440160 -10.733954 -2.046441 -19.714344 47.526317 13.231012 -22.744990 12.156125 0.000000 0.000000 0.000000 -3.906175 -0.866432 2.554032 2.520550 -1.585788 12.220127 1.630247 -0.352558 -10.024497 6.616240 -1.049889 -10.034957 -2.908904 -0.253645 -1.710121 0.000000 0.000000 0.000000 1.165519 9.702526 9.065759 -70.091382 -4.230052 20.062004 -16.401111 -77.196660 0.443090 2.028261 -14.694202 0.215507 2.079267 -14.692565 0.000000 0.000000 0.000000 0.000000 0.000000 0.000000 0.000000 -6.189306 -11.041103 8.154599 67.608196 5.001770 18.208578 17.158521 75.864253 0.345918 -0.960552 12.259815 0.170430 -0.983834 12.261732 0.000000 0.000000 0.000000 0.000000 0.000000 0.000000 0.000000 
-1.760787 16.461616 23.922313 3.396103 3.054293 8.202255 -3.817734 13.255738 -2.891258 -22.647421 -4.273824 -8.402188 -13.354597 -7.874274 -20.514445 1.351756 12.395305 27.037237 0.000000 0.000000 0.000000 11.125220 -8.714177 6.270967 1.721974 5.331276 -10.676213 -2.180408 -19.514484 47.136631 13.516278 -24.372709 14.377365 0.000000 0.000000 0.000000 -3.981096 -0.821872 2.440920 2.334751 -1.594740 12.365322 1.522629 -0.369883 -10.296251 6.355455 -0.996453 -9.729969 -2.698014 -0.230682 -1.600413 0.000000 0.000000 0.000000 0.941771 9.866904 9.081131 -69.919986 -4.147109 20.317583 -17.025272 -76.758553 0.460716 1.837873 -14.580132 0.224653 1.884416 -14.579801 0.000000 0.000000 0.000000 0.000000 0.000000 0.000000 0.000000 -5.815548 -11.404498 8.126750 67.257500 4.895012 18.222213 17.595361 75.300149 0.343283 -0.889993 12.137747 0.169220 -0.912180 12.139849 0.000000 0.000000 0.000000 0.000000 0.000000 0.000000 0.000000 
-1.770766 16.491560 24.120487 3.705856 2.910899 8.243052 -3.461621 13.468288 -3.101030 -23.527831 -4.269766 -8.034922 -12.719377 -7.374763 -18.837773 0.951099 10.757094 23.728420 0.000000 0.000000 0.000000 11.108242 -8.883077 6.602527 1.392623 5.202541 -10.628309 -2.308295 -19.304671 46.700022 13.725733 -25.974894 16.528645 0.000000 0.000000 0.000000 -4.059801 -0.784954 2.337412 2.175798 -1.605112 12.487387 1.420354 -0.388037 -10.554143 6.113964 -0.946838 -9.442329 -2.502219 -0.210052 -1.497475 0.000000 0.000000 0.000000 0.726953 10.026680 9.097927 -69.756706 -4.066987 20.552517 -17.633397 -76.324707 0.477206 1.654914 -14.464941 0.233212 1.697235 -14.465795 0.000000 0.000000 0.000000 0.000000 0.000000 0.000000 0.000000 -5.465041 -11.751173 8.101982 66.918136 4.796099 18.225874 18.015572 74.746935 0.340482 -0.823822 12.016819 0.167921 -0.844990 12.019082 0.000000 0.000000 0.000000 0.000000 0.000000 0.000000 0.000000 
-1.778972 16.522754 24.314906 3.991972 2.768335 8.286296 -3.163772 13.686049 -3.313800 -24.333875 -4.280187 -7.737401 -12.071343 -6.843109 -17.103111 0.621469 9.189694 20.573744 0.000000 0.000000 0.000000 11.126252 -9.051737 6.938462 1.043725 5.058462 -10.591512 -2.433030 -19.085993 46.227062 13.851684 -27.528371 18.596525 0.000000 0.000000 0.000000 -4.139924 -0.755784 2.241879 2.044102 -1.617150 12.588147 1.323026 -0.406787 -10.798698 5.891164 -0.900994 -9.172593 -2.321412 -0.191598 -1.401314 0.000000 0.000000 0.000000 0.521040 10.181737 9.115811 -69.601895 -3.989527 20.767410 -18.225280 -75.895585 0.492594 1.479253 -14.348961 0.241202 1.517586 -14.350890 0.000000 0.000000 0.000000 0.000000 0.000000 0.000000 0.000000 -5.137509 -12.080923 8.080326 66.590626 4.704728 18.220112 18.419212 74.204928 0.337532 -0.761863 11.897204 0.166542 -0.782083 11.899606 0.000000 0.000000 0.000000 0.000000 0.000000 0.000000 0.000000 
